<svg width="91" height="25" viewBox="0 0 91 25" fill="none" xmlns="http://www.w3.org/2000/svg">
<circle cx="12.5" cy="12.5" r="12.5" fill="url(#paint0_linear_10_5)"/>
<path d="M40.4659 10H38.7045C38.6004 9.49337 38.4181 9.0483 38.1577 8.66477C37.902 8.28125 37.5895 7.95928 37.2202 7.69886C36.8556 7.43371 36.4508 7.23485 36.0057 7.10227C35.5606 6.9697 35.0966 6.90341 34.6136 6.90341C33.733 6.90341 32.9351 7.12595 32.2202 7.57102C31.5099 8.0161 30.9441 8.67188 30.5227 9.53835C30.1061 10.4048 29.8977 11.4678 29.8977 12.7273C29.8977 13.9867 30.1061 15.0497 30.5227 15.9162C30.9441 16.7827 31.5099 17.4384 32.2202 17.8835C32.9351 18.3286 33.733 18.5511 34.6136 18.5511C35.0966 18.5511 35.5606 18.4848 36.0057 18.3523C36.4508 18.2197 36.8556 18.0232 37.2202 17.7628C37.5895 17.4976 37.902 17.1733 38.1577 16.7898C38.4181 16.4015 38.6004 15.9564 38.7045 15.4545H40.4659C40.3333 16.1979 40.0919 16.8632 39.7415 17.4503C39.3911 18.0374 38.9555 18.5369 38.4347 18.9489C37.9138 19.3561 37.3291 19.6662 36.6804 19.8793C36.0365 20.0923 35.3475 20.1989 34.6136 20.1989C33.3731 20.1989 32.2699 19.8958 31.304 19.2898C30.3381 18.6837 29.5781 17.822 29.0241 16.7045C28.4702 15.5871 28.1932 14.2614 28.1932 12.7273C28.1932 11.1932 28.4702 9.86742 29.0241 8.75C29.5781 7.63258 30.3381 6.77083 31.304 6.16477C32.2699 5.55871 33.3731 5.25568 34.6136 5.25568C35.3475 5.25568 36.0365 5.36222 36.6804 5.57528C37.3291 5.78835 37.9138 6.10085 38.4347 6.51278C38.9555 6.91998 39.3911 7.41714 39.7415 8.00426C40.0919 8.58665 40.3333 9.25189 40.4659 10ZM46.5167 20.2273C45.5318 20.2273 44.6677 19.9929 43.9244 19.5241C43.1857 19.0554 42.6081 18.3996 42.1914 17.5568C41.7795 16.714 41.5735 15.7292 41.5735 14.6023C41.5735 13.4659 41.7795 12.474 42.1914 11.6264C42.6081 10.7789 43.1857 10.1207 43.9244 9.65199C44.6677 9.18324 45.5318 8.94886 46.5167 8.94886C47.5015 8.94886 48.3633 9.18324 49.1019 9.65199C49.8453 10.1207 50.4229 10.7789 50.8349 11.6264C51.2515 12.474 51.4599 13.4659 51.4599 14.6023C51.4599 15.7292 51.2515 16.714 50.8349 17.5568C50.4229 18.3996 49.8453 19.0554 49.1019 19.5241C48.3633 19.9929 47.5015 20.2273 46.5167 20.2273ZM46.5167 18.7216C47.2648 18.7216 47.8803 18.5298 48.3633 18.1463C48.8462 17.7628 49.2037 17.2585 49.4357 16.6335C49.6677 16.0085 49.7837 15.3314 49.7837 14.6023C49.7837 13.8731 49.6677 13.1937 49.4357 12.5639C49.2037 11.9342 48.8462 11.4252 48.3633 11.0369C47.8803 10.6487 47.2648 10.4545 46.5167 10.4545C45.7686 10.4545 45.1531 10.6487 44.6701 11.0369C44.1871 11.4252 43.8297 11.9342 43.5977 12.5639C43.3656 13.1937 43.2496 13.8731 43.2496 14.6023C43.2496 15.3314 43.3656 16.0085 43.5977 16.6335C43.8297 17.2585 44.1871 17.7628 44.6701 18.1463C45.1531 18.5298 45.7686 18.7216 46.5167 18.7216ZM54.6946 13.4375V20H53.0185V5.45455H54.6946V10.7955H54.8366C55.0923 10.232 55.4759 9.78456 55.9872 9.45312C56.5033 9.11695 57.1899 8.94886 58.0469 8.94886C58.7902 8.94886 59.4413 9.09801 60 9.39631C60.5587 9.68987 60.992 10.142 61.2997 10.7528C61.6122 11.3589 61.7685 12.1307 61.7685 13.0682V20H60.0923V13.1818C60.0923 12.3153 59.8674 11.6454 59.4176 11.1719C58.9725 10.6937 58.3546 10.4545 57.5639 10.4545C57.0147 10.4545 56.5223 10.5705 56.0866 10.8026C55.6558 11.0346 55.3149 11.3731 55.0639 11.8182C54.8177 12.2633 54.6946 12.803 54.6946 13.4375ZM68.4087 20.2273C67.3576 20.2273 66.4509 19.9953 65.6886 19.5312C64.931 19.0625 64.3462 18.4091 63.9343 17.571C63.5271 16.7282 63.3235 15.7481 63.3235 14.6307C63.3235 13.5133 63.5271 12.5284 63.9343 11.6761C64.3462 10.8191 64.9192 10.1515 65.6531 9.6733C66.3917 9.19034 67.2534 8.94886 68.2383 8.94886C68.8065 8.94886 69.3675 9.04356 69.9215 9.23295C70.4755 9.42235 70.9798 9.73011 71.4343 10.1562C71.8888 10.5777 72.2511 11.1364 72.521 11.8324C72.7908 12.5284 72.9258 13.3854 72.9258 14.4034V15.1136H64.5167V13.6648H71.2212C71.2212 13.0492 71.0981 12.5 70.8519 12.017C70.6104 11.5341 70.2648 11.1529 69.815 10.8736C69.3699 10.5942 68.8443 10.4545 68.2383 10.4545C67.5707 10.4545 66.993 10.6203 66.5053 10.9517C66.0224 11.2784 65.6507 11.7045 65.3903 12.2301C65.1299 12.7557 64.9996 13.3191 64.9996 13.9205V14.8864C64.9996 15.7102 65.1417 16.4086 65.4258 16.9815C65.7146 17.5497 66.1147 17.983 66.6261 18.2812C67.1374 18.5748 67.7317 18.7216 68.4087 18.7216C68.8491 18.7216 69.2468 18.66 69.6019 18.5369C69.9618 18.4091 70.2719 18.2197 70.5323 17.9688C70.7927 17.7131 70.994 17.3958 71.136 17.017L72.7553 17.4716C72.5849 18.0208 72.2984 18.5038 71.896 18.9205C71.4935 19.3324 70.9963 19.6544 70.4045 19.8864C69.8126 20.1136 69.1474 20.2273 68.4087 20.2273ZM74.4755 20V9.09091H76.0948V10.7386H76.2085C76.4073 10.1989 76.7672 9.76089 77.288 9.42472C77.8088 9.08854 78.396 8.92045 79.0494 8.92045C79.1725 8.92045 79.3263 8.92282 79.511 8.92756C79.6957 8.93229 79.8353 8.93939 79.93 8.94886V10.6534C79.8732 10.6392 79.743 10.6179 79.5394 10.5895C79.3406 10.5563 79.1299 10.5398 78.9073 10.5398C78.377 10.5398 77.9035 10.651 77.4869 10.8736C77.0749 11.0914 76.7482 11.3944 76.5067 11.7827C76.27 12.1662 76.1516 12.6042 76.1516 13.0966V20H74.4755ZM84.1271 20.2557C83.4358 20.2557 82.8085 20.1255 82.245 19.8651C81.6816 19.5999 81.2341 19.2188 80.9027 18.7216C80.5713 18.2197 80.4055 17.6136 80.4055 16.9034C80.4055 16.2784 80.5286 15.7718 80.7749 15.3835C81.0211 14.9905 81.3501 14.6828 81.7621 14.4602C82.174 14.2377 82.6286 14.072 83.1257 13.9631C83.6276 13.8494 84.1319 13.7595 84.6385 13.6932C85.3014 13.608 85.8388 13.544 86.2507 13.5014C86.6674 13.4541 86.9704 13.3759 87.1598 13.267C87.3539 13.1581 87.451 12.9687 87.451 12.6989V12.642C87.451 11.9413 87.2592 11.3968 86.8757 11.0085C86.4969 10.6203 85.9216 10.4261 85.1499 10.4261C84.3497 10.4261 83.7223 10.6013 83.2678 10.9517C82.8132 11.3021 82.4936 11.6761 82.3089 12.0739L80.718 11.5057C81.0021 10.8428 81.3809 10.3267 81.8544 9.95739C82.3326 9.58333 82.8535 9.32292 83.4169 9.17614C83.9851 9.02462 84.5438 8.94886 85.093 8.94886C85.4434 8.94886 85.8459 8.99148 86.3004 9.0767C86.7597 9.1572 87.2024 9.32528 87.6286 9.58097C88.0594 9.83665 88.4169 10.2225 88.701 10.7386C88.9851 11.2547 89.1271 11.946 89.1271 12.8125V20H87.451V18.5227H87.3658C87.2521 18.7595 87.0627 19.0128 86.7976 19.2827C86.5324 19.5526 86.1797 19.7822 85.7393 19.9716C85.299 20.161 84.7616 20.2557 84.1271 20.2557ZM84.3828 18.75C85.0457 18.75 85.6044 18.6198 86.0589 18.3594C86.5182 18.099 86.8639 17.7628 87.0959 17.3509C87.3326 16.9389 87.451 16.5057 87.451 16.0511V14.517C87.38 14.6023 87.2237 14.6804 86.9822 14.7514C86.7455 14.8177 86.4709 14.8769 86.1584 14.929C85.8506 14.9763 85.55 15.0189 85.2564 15.0568C84.9676 15.09 84.7332 15.1184 84.5533 15.142C84.1177 15.1989 83.7105 15.2912 83.3317 15.419C82.9576 15.5421 82.6546 15.7292 82.4226 15.9801C82.1953 16.2263 82.0817 16.5625 82.0817 16.9886C82.0817 17.571 82.2971 18.0114 82.728 18.3097C83.1636 18.6032 83.7152 18.75 84.3828 18.75Z" fill="black"/>
<defs>
<linearGradient id="paint0_linear_10_5" x1="12.5" y1="0" x2="12.5" y2="25" gradientUnits="userSpaceOnUse">
<stop stop-color="#0077FF"/>
<stop offset="1" stop-color="#63D2DA"/>
</linearGradient>
</defs>
</svg>
