<svg width="96" height="25" viewBox="0 0 96 25" fill="none" xmlns="http://www.w3.org/2000/svg">
<circle cx="12.5" cy="12.5" r="12.5" fill="url(#paint0_linear_14_3)"/>
<path d="M45.4659 10H43.7045C43.6004 9.49337 43.4181 9.0483 43.1577 8.66477C42.902 8.28125 42.5895 7.95928 42.2202 7.69886C41.8556 7.43371 41.4508 7.23485 41.0057 7.10227C40.5606 6.9697 40.0966 6.90341 39.6136 6.90341C38.733 6.90341 37.9351 7.12595 37.2202 7.57102C36.5099 8.0161 35.9441 8.67188 35.5227 9.53835C35.1061 10.4048 34.8977 11.4678 34.8977 12.7273C34.8977 13.9867 35.1061 15.0497 35.5227 15.9162C35.9441 16.7827 36.5099 17.4384 37.2202 17.8835C37.9351 18.3286 38.733 18.5511 39.6136 18.5511C40.0966 18.5511 40.5606 18.4848 41.0057 18.3523C41.4508 18.2197 41.8556 18.0232 42.2202 17.7628C42.5895 17.4976 42.902 17.1733 43.1577 16.7898C43.4181 16.4015 43.6004 15.9564 43.7045 15.4545H45.4659C45.3333 16.1979 45.0919 16.8632 44.7415 17.4503C44.3911 18.0374 43.9555 18.5369 43.4347 18.9489C42.9138 19.3561 42.3291 19.6662 41.6804 19.8793C41.0365 20.0923 40.3475 20.1989 39.6136 20.1989C38.3731 20.1989 37.2699 19.8958 36.304 19.2898C35.3381 18.6837 34.5781 17.822 34.0241 16.7045C33.4702 15.5871 33.1932 14.2614 33.1932 12.7273C33.1932 11.1932 33.4702 9.86742 34.0241 8.75C34.5781 7.63258 35.3381 6.77083 36.304 6.16477C37.2699 5.55871 38.3731 5.25568 39.6136 5.25568C40.3475 5.25568 41.0365 5.36222 41.6804 5.57528C42.3291 5.78835 42.9138 6.10085 43.4347 6.51278C43.9555 6.91998 44.3911 7.41714 44.7415 8.00426C45.0919 8.58665 45.3333 9.25189 45.4659 10ZM51.5167 20.2273C50.5318 20.2273 49.6677 19.9929 48.9244 19.5241C48.1857 19.0554 47.6081 18.3996 47.1914 17.5568C46.7795 16.714 46.5735 15.7292 46.5735 14.6023C46.5735 13.4659 46.7795 12.474 47.1914 11.6264C47.6081 10.7789 48.1857 10.1207 48.9244 9.65199C49.6677 9.18324 50.5318 8.94886 51.5167 8.94886C52.5015 8.94886 53.3633 9.18324 54.1019 9.65199C54.8453 10.1207 55.4229 10.7789 55.8349 11.6264C56.2515 12.474 56.4599 13.4659 56.4599 14.6023C56.4599 15.7292 56.2515 16.714 55.8349 17.5568C55.4229 18.3996 54.8453 19.0554 54.1019 19.5241C53.3633 19.9929 52.5015 20.2273 51.5167 20.2273ZM51.5167 18.7216C52.2648 18.7216 52.8803 18.5298 53.3633 18.1463C53.8462 17.7628 54.2037 17.2585 54.4357 16.6335C54.6677 16.0085 54.7837 15.3314 54.7837 14.6023C54.7837 13.8731 54.6677 13.1937 54.4357 12.5639C54.2037 11.9342 53.8462 11.4252 53.3633 11.0369C52.8803 10.6487 52.2648 10.4545 51.5167 10.4545C50.7686 10.4545 50.1531 10.6487 49.6701 11.0369C49.1871 11.4252 48.8297 11.9342 48.5977 12.5639C48.3656 13.1937 48.2496 13.8731 48.2496 14.6023C48.2496 15.3314 48.3656 16.0085 48.5977 16.6335C48.8297 17.2585 49.1871 17.7628 49.6701 18.1463C50.1531 18.5298 50.7686 18.7216 51.5167 18.7216ZM59.6946 13.4375V20H58.0185V5.45455H59.6946V10.7955H59.8366C60.0923 10.232 60.4759 9.78456 60.9872 9.45312C61.5033 9.11695 62.1899 8.94886 63.0469 8.94886C63.7902 8.94886 64.4413 9.09801 65 9.39631C65.5587 9.68987 65.992 10.142 66.2997 10.7528C66.6122 11.3589 66.7685 12.1307 66.7685 13.0682V20H65.0923V13.1818C65.0923 12.3153 64.8674 11.6454 64.4176 11.1719C63.9725 10.6937 63.3546 10.4545 62.5639 10.4545C62.0147 10.4545 61.5223 10.5705 61.0866 10.8026C60.6558 11.0346 60.3149 11.3731 60.0639 11.8182C59.8177 12.2633 59.6946 12.803 59.6946 13.4375ZM73.4087 20.2273C72.3576 20.2273 71.4509 19.9953 70.6886 19.5312C69.931 19.0625 69.3462 18.4091 68.9343 17.571C68.5271 16.7282 68.3235 15.7481 68.3235 14.6307C68.3235 13.5133 68.5271 12.5284 68.9343 11.6761C69.3462 10.8191 69.9192 10.1515 70.6531 9.6733C71.3917 9.19034 72.2534 8.94886 73.2383 8.94886C73.8065 8.94886 74.3675 9.04356 74.9215 9.23295C75.4755 9.42235 75.9798 9.73011 76.4343 10.1562C76.8888 10.5777 77.2511 11.1364 77.521 11.8324C77.7908 12.5284 77.9258 13.3854 77.9258 14.4034V15.1136H69.5167V13.6648H76.2212C76.2212 13.0492 76.0981 12.5 75.8519 12.017C75.6104 11.5341 75.2648 11.1529 74.815 10.8736C74.3699 10.5942 73.8443 10.4545 73.2383 10.4545C72.5707 10.4545 71.993 10.6203 71.5053 10.9517C71.0224 11.2784 70.6507 11.7045 70.3903 12.2301C70.1299 12.7557 69.9996 13.3191 69.9996 13.9205V14.8864C69.9996 15.7102 70.1417 16.4086 70.4258 16.9815C70.7146 17.5497 71.1147 17.983 71.6261 18.2812C72.1374 18.5748 72.7317 18.7216 73.4087 18.7216C73.8491 18.7216 74.2468 18.66 74.6019 18.5369C74.9618 18.4091 75.2719 18.2197 75.5323 17.9688C75.7927 17.7131 75.994 17.3958 76.136 17.017L77.7553 17.4716C77.5849 18.0208 77.2984 18.5038 76.896 18.9205C76.4935 19.3324 75.9963 19.6544 75.4045 19.8864C74.8126 20.1136 74.1474 20.2273 73.4087 20.2273ZM79.4755 20V9.09091H81.0948V10.7386H81.2085C81.4073 10.1989 81.7672 9.76089 82.288 9.42472C82.8088 9.08854 83.396 8.92045 84.0494 8.92045C84.1725 8.92045 84.3263 8.92282 84.511 8.92756C84.6957 8.93229 84.8353 8.93939 84.93 8.94886V10.6534C84.8732 10.6392 84.743 10.6179 84.5394 10.5895C84.3406 10.5563 84.1299 10.5398 83.9073 10.5398C83.377 10.5398 82.9035 10.651 82.4869 10.8736C82.0749 11.0914 81.7482 11.3944 81.5067 11.7827C81.27 12.1662 81.1516 12.6042 81.1516 13.0966V20H79.4755ZM89.1271 20.2557C88.4358 20.2557 87.8085 20.1255 87.245 19.8651C86.6816 19.5999 86.2341 19.2188 85.9027 18.7216C85.5713 18.2197 85.4055 17.6136 85.4055 16.9034C85.4055 16.2784 85.5286 15.7718 85.7749 15.3835C86.0211 14.9905 86.3501 14.6828 86.7621 14.4602C87.174 14.2377 87.6286 14.072 88.1257 13.9631C88.6276 13.8494 89.1319 13.7595 89.6385 13.6932C90.3014 13.608 90.8388 13.544 91.2507 13.5014C91.6674 13.4541 91.9704 13.3759 92.1598 13.267C92.3539 13.1581 92.451 12.9687 92.451 12.6989V12.642C92.451 11.9413 92.2592 11.3968 91.8757 11.0085C91.4969 10.6203 90.9216 10.4261 90.1499 10.4261C89.3497 10.4261 88.7223 10.6013 88.2678 10.9517C87.8132 11.3021 87.4936 11.6761 87.3089 12.0739L85.718 11.5057C86.0021 10.8428 86.3809 10.3267 86.8544 9.95739C87.3326 9.58333 87.8535 9.32292 88.4169 9.17614C88.9851 9.02462 89.5438 8.94886 90.093 8.94886C90.4434 8.94886 90.8459 8.99148 91.3004 9.0767C91.7597 9.1572 92.2024 9.32528 92.6286 9.58097C93.0594 9.83665 93.4169 10.2225 93.701 10.7386C93.9851 11.2547 94.1271 11.946 94.1271 12.8125V20H92.451V18.5227H92.3658C92.2521 18.7595 92.0627 19.0128 91.7976 19.2827C91.5324 19.5526 91.1797 19.7822 90.7393 19.9716C90.299 20.161 89.7616 20.2557 89.1271 20.2557ZM89.3828 18.75C90.0457 18.75 90.6044 18.6198 91.0589 18.3594C91.5182 18.099 91.8639 17.7628 92.0959 17.3509C92.3326 16.9389 92.451 16.5057 92.451 16.0511V14.517C92.38 14.6023 92.2237 14.6804 91.9822 14.7514C91.7455 14.8177 91.4709 14.8769 91.1584 14.929C90.8506 14.9763 90.55 15.0189 90.2564 15.0568C89.9676 15.09 89.7332 15.1184 89.5533 15.142C89.1177 15.1989 88.7105 15.2912 88.3317 15.419C87.9576 15.5421 87.6546 15.7292 87.4226 15.9801C87.1953 16.2263 87.0817 16.5625 87.0817 16.9886C87.0817 17.571 87.2971 18.0114 87.728 18.3097C88.1636 18.6032 88.7152 18.75 89.3828 18.75Z" fill="black"/>
<defs>
<linearGradient id="paint0_linear_14_3" x1="12.5" y1="0" x2="12.5" y2="25" gradientUnits="userSpaceOnUse">
<stop stop-color="#0077FF"/>
<stop offset="1" stop-color="#63D2DA"/>
</linearGradient>
</defs>
</svg>
